<svg width="1033" height="508" viewBox="0 0 1033 508" fill="none" xmlns="http://www.w3.org/2000/svg">
<path fill-rule="evenodd" clip-rule="evenodd" d="M101.216 0.534044C90.5901 1.5027 85.5153 2.45556 77.598 4.96938C27.5679 20.8539 -5.08384 73.0227 0.651778 127.91C9.32881 210.945 94.6591 256.943 162.554 215.185C175.333 207.324 180.685 201.623 180.984 195.55C181.242 190.315 180.216 188.535 171.749 179.527C160.191 167.232 157.83 166.783 146.681 174.764C105.093 204.536 49.8573 179.62 41.5493 127.34C31.7633 65.761 95.7911 21.2864 145.256 55.3041C150.869 59.1642 150.592 58.9915 152.32 59.7177C164.886 64.9976 186.033 43.9029 180.547 31.5605C176.829 23.196 154.353 9.30684 136.166 4.13491C124.781 0.89713 111.848 -0.435238 101.216 0.534044ZM303.807 0.540359C296.233 1.24222 293.314 1.63183 289.611 2.43567C213.941 18.8617 178.17 111.134 220.896 179.689C257.923 239.102 337.52 248.262 385.507 198.632C452.79 129.047 412.22 8.71453 318.764 0.669491C310.628 -0.0307912 310.03 -0.0361587 303.807 0.540359ZM956.302 0.233472C955.977 0.292198 953.107 0.554882 949.925 0.816935C878.81 6.67399 832.16 86.359 858.331 157.272C883.584 225.698 961.32 252.15 1018.61 211.812C1035.88 199.65 1036.62 194.128 1022.94 179.518C1011.43 167.223 1008.93 166.769 997.48 174.91C951.783 207.413 891.648 173.581 891.77 115.438C891.89 58.9296 950.717 24.253 995.103 54.5278C1003.22 60.0678 1004.72 60.7324 1009.02 60.7334C1014.34 60.7346 1016.71 59.2968 1023.94 51.6982C1032.99 42.185 1034.6 38.0329 1031.66 31.6862C1028.27 24.3332 1009.05 11.539 993.082 6.00464C982.058 2.1834 962.494 -0.886412 956.302 0.233472ZM463.651 5.42529C458.824 6.45424 455.351 10.2499 454.272 15.6763C453.629 18.9125 453.609 212.177 454.251 215.407C455.969 224.049 459.762 226.086 474.147 226.095C485.479 226.102 487.331 225.68 490.65 222.334C494.374 218.58 494.402 218.354 494.402 192.002C494.402 168.32 494.419 168.064 496.098 166.357C497.806 164.62 496.073 164.706 533.35 164.507C567.374 164.327 568.066 164.311 571.41 163.634C655.267 146.647 656.347 22.7997 572.784 6.11894C568.503 5.26426 467.42 4.62208 463.651 5.42529ZM669.151 5.52348C661.464 7.31112 659.567 11.7941 659.733 27.7844C659.877 41.7276 661.13 44.6714 668.114 47.4754C670.693 48.5103 812.961 48.6202 815.763 47.5894C822.942 44.948 824.646 40.8505 824.641 26.2456C824.636 11.7439 822.336 6.97582 814.59 5.41013C812.157 4.91823 671.281 5.02842 669.151 5.52348ZM317.118 43.7722C381.092 51.7494 400.933 138.119 347.494 175.999C312.308 200.94 263.498 184.222 247.843 141.868C231.825 98.5309 258.42 50.2907 301.734 44.1157C308.325 43.1761 311.727 43.1 317.118 43.7722ZM567.708 49.3656C602.904 59.3821 603.707 110.023 568.831 120.266C564.524 121.532 499.232 121.63 497.177 120.374C494.358 118.652 494.55 121.25 494.55 84.8129C494.55 47.3787 494.275 49.7859 498.676 48.6376C501.653 47.8609 564.758 48.5264 567.708 49.3656ZM718.022 94.5556C710.714 96.2684 708.84 100.566 708.84 115.611C708.84 130.667 710.963 135.187 718.756 136.722C721.106 137.185 805.512 137.206 807.798 136.743C812.77 135.738 816.318 132.118 817.238 127.11C817.806 124.024 817.51 103.836 816.872 102.096C815.69 98.8713 813.318 96.3587 810.18 95.0062C808.194 94.1499 721.559 93.7262 718.022 94.5556ZM669.566 183.315C661.601 185.162 659.683 189.268 659.683 204.473C659.683 219.791 661.778 224.166 669.872 225.756C672.152 226.203 811.523 226.242 814.081 225.796C822.317 224.358 824.5 219.89 824.5 204.473C824.5 188.958 822.356 184.615 813.985 183.181C810.853 182.644 671.903 182.773 669.566 183.315ZM699.118 312.001C693.213 313.239 688.514 319.616 689.101 325.594C689.595 330.636 688.678 329.288 721.736 373.545C729.775 384.308 730.363 384.336 737.867 374.322C745.597 364.006 745.603 364.122 736.555 351.534C708.436 312.415 709.162 313.284 703.568 312.018C701.798 311.618 700.96 311.614 699.118 312.001ZM821.538 312.09C816 313.623 819.34 309.5 772.631 372.44C763.996 384.075 748.549 404.889 738.303 418.694C711.975 454.17 700.312 469.895 694.398 477.893C683.081 493.196 684.824 506.15 698.2 506.15C705.111 506.15 703.547 507.961 738.015 460.054C743.699 452.153 750.72 442.397 753.616 438.374C760.072 429.408 760.959 428.646 763.462 429.911C764.881 430.63 764.987 430.768 780.092 451.688C821.089 508.465 817.718 504.218 822.975 505.71C831.86 508.232 840.405 498.858 837.727 489.525C836.792 486.265 838.165 488.239 813.389 454.529C810.07 450.014 804.54 442.484 801.099 437.796C797.658 433.107 791.855 425.222 788.203 420.273C777.369 405.591 777.149 408.502 790.438 390.594C795.141 384.256 802.67 374.098 807.169 368.02C811.668 361.942 817.737 353.773 820.655 349.866C833.367 332.845 834.75 330.717 835.604 326.859C837.449 318.522 829.283 309.947 821.538 312.09ZM367.106 312.575C362.331 314.333 359.279 318.491 358.294 324.578C357.483 329.587 357.799 491.386 358.625 494.192C360.374 500.128 364.12 503.642 369.867 504.733C373.296 505.385 468.507 505.403 471.926 504.752C483.559 502.54 486.826 488.581 477.287 481.846C474.178 479.651 477.551 479.809 430.13 479.632C381.631 479.45 385.751 479.694 384.388 476.925C383.777 475.683 383.777 475.683 383.629 399.435C383.462 313.729 383.707 321.96 381.208 317.97C378.16 313.106 372.032 310.761 367.106 312.575ZM513.9 312.458C509.337 314.014 505.889 318.497 505.041 323.976C504.666 326.397 504.692 427.439 505.069 433.012C508.263 480.233 539.235 509.9 583.257 507.905C625.104 506.01 650.187 480.936 655.287 435.901C656.345 426.561 656.363 325.779 655.308 322.202C651.705 309.991 637.3 308.363 631.975 319.565C630.305 323.079 630.362 321.093 630.353 376.229C630.349 407.192 630.229 428.788 630.047 431.479C627.954 462.423 612.766 480.047 586.347 482.186C557.455 484.526 537.695 469.84 532.146 441.9C530.231 432.257 530.241 432.602 530.235 376.387C530.23 320.865 530.292 323.033 528.576 319.293C526.056 313.802 519.252 310.634 513.9 312.458ZM206.362 313.143C201.343 313.87 196.797 317.926 195.326 322.99C194.49 325.87 194.532 493.76 195.37 496.363C199.727 509.903 216.894 508.673 219.686 494.621C220.056 492.76 220.125 487.479 220.13 460.747C220.135 426.855 220.127 427.046 221.645 425.391C223.186 423.71 222.248 423.746 264.62 423.74C308.15 423.734 306.658 423.799 309.816 421.777C318.275 416.361 316.998 403.747 307.58 399.693C305.88 398.961 305.88 398.961 264.859 398.803C224.127 398.647 223.829 398.641 222.671 397.993C220.137 396.577 220.283 398.364 220.283 368.651C220.283 338.939 220.137 340.726 222.671 339.309C223.831 338.661 224.083 338.656 269.894 338.489C311.047 338.339 316.113 338.267 317.48 337.815C329.32 333.893 329.999 318.443 318.537 313.775C316.966 313.135 210.556 312.536 206.362 313.143Z" fill="white"/>
</svg>
